<?xml version="1.0" standalone="no"?>
<!DOCTYPE svg PUBLIC "-//W3C//DTD SVG 20010904//EN"
 "http://www.w3.org/TR/2001/REC-SVG-20010904/DTD/svg10.dtd">
<svg version="1.0" xmlns="http://www.w3.org/2000/svg"
 width="512.000000pt" height="512.000000pt" viewBox="0 0 512.000000 512.000000"
 preserveAspectRatio="xMidYMid meet">
<metadata>
Created by potrace 1.15, written by Peter Selinger 2001-2017
</metadata>
<g transform="translate(0.000000,512.000000) scale(0.100000,-0.100000)"
fill="#000000" stroke="none">
<path d="M259 4861 l-259 -259 0 -108 0 -108 76 74 c97 94 542 540 609 609
l49 51 -108 0 -108 0 -259 -259z"/>
<path d="M709 4411 l-709 -708 0 -109 0 -108 76 74 c234 230 223 223 169 106
-170 -364 -245 -697 -245 -1093 0 -212 10 -332 41 -495 l21 -108 -31 -39 c-30
-38 -31 -42 -31 -142 l0 -103 55 54 c53 53 54 53 63 29 51 -144 86 -229 137
-331 l60 -122 -157 -158 -158 -158 0 -107 0 -107 76 74 c42 41 130 128 195
193 66 64 123 117 127 117 4 0 16 -13 25 -29 30 -51 130 -183 200 -263 37 -42
67 -78 67 -80 0 -2 -155 -160 -345 -350 l-345 -347 0 -51 0 -50 58 0 58 0 343
340 c188 187 344 340 347 340 2 0 50 -38 106 -85 55 -47 139 -111 184 -142 46
-31 84 -59 84 -63 0 -3 -83 -90 -185 -192 -102 -102 -185 -189 -185 -192 0 -3
46 -6 103 -6 l102 0 156 153 155 152 120 -56 c65 -31 164 -73 219 -93 55 -20
108 -40 119 -44 16 -7 13 -13 -28 -54 -25 -26 -46 -49 -46 -52 0 -3 46 -6 102
-6 100 0 103 1 134 31 l31 30 104 -20 c160 -31 280 -41 502 -41 400 0 756 84
1120 263 59 29 107 52 107 52 0 -1 -67 -69 -150 -152 -82 -83 -150 -154 -150
-157 0 -3 47 -6 104 -6 l105 0 700 701 701 700 0 105 c0 57 -2 104 -5 104 -3
0 -74 -67 -157 -150 -84 -82 -152 -150 -153 -150 0 0 23 48 52 107 179 364
263 720 263 1120 0 222 -10 342 -41 502 l-20 104 31 32 31 32 -3 104 -3 104
-49 -49 c-45 -43 -51 -47 -58 -30 -4 11 -24 64 -44 119 -20 55 -62 154 -93
219 l-57 120 153 155 153 156 0 103 c0 56 -3 102 -6 102 -3 0 -89 -83 -192
-185 -102 -102 -189 -185 -193 -185 -3 0 -23 26 -44 58 -45 67 -145 197 -207
266 l-44 49 343 345 343 346 0 58 0 58 -51 0 -50 0 -347 -346 c-227 -226 -351
-343 -359 -337 -6 4 -55 45 -110 91 -54 46 -133 107 -175 135 -43 29 -77 55
-78 60 0 4 64 72 143 151 78 79 164 167 192 195 l49 51 -107 0 -107 0 -137
-135 c-76 -75 -147 -145 -159 -156 -20 -19 -21 -19 -145 40 -118 56 -306 131
-329 131 -22 0 -8 26 37 72 l47 48 -102 0 c-100 0 -104 -1 -142 -31 l-39 -31
-108 20 c-164 32 -283 42 -496 42 -395 0 -729 -75 -1092 -244 -52 -25 -95 -43
-95 -40 0 2 39 44 88 93 48 49 109 112 137 140 l49 51 -108 0 -109 0 -708
-709z m1622 -371 c51 -28 49 41 49 -1480 0 -1239 -2 -1415 -15 -1440 -32 -62
-69 -64 -236 -11 -68 22 -286 89 -484 151 -198 61 -407 126 -465 144 l-105 33
0 1123 0 1123 535 166 c294 92 558 174 585 183 59 19 109 22 136 8z m1103
-739 c13 -6 77 -72 142 -148 65 -76 184 -214 264 -308 214 -250 210 -245 210
-286 0 -40 2 -38 -376 -479 -236 -274 -250 -286 -314 -260 -51 21 -60 52 -60
213 l0 144 -137 6 c-75 4 -228 7 -340 7 l-205 0 -29 30 -30 29 3 317 3 316 28
24 c28 24 31 24 231 24 112 0 264 3 339 7 l136 6 3 152 c3 136 5 155 23 175
33 37 67 46 109 31z"/>
<path d="M1945 2919 c-38 -11 -94 -64 -111 -106 -56 -132 66 -273 207 -242 85
19 139 87 139 173 0 81 -33 134 -105 167 -43 20 -82 22 -130 8z"/>
<path d="M4759 362 c-192 -192 -349 -352 -349 -355 0 -4 46 -7 103 -7 l104 0
251 251 252 252 0 103 c0 57 -3 104 -6 104 -4 0 -163 -157 -355 -348z"/>
</g>
</svg>
